<svg width="1024" height="1024" viewBox="0 0 1024 1024" fill="none" xmlns="http://www.w3.org/2000/svg">
<rect width="1024" height="1024" fill="white"/>
<g clip-path="url(#clip0_1544_2)">
<path d="M65.2178 131.39C65.2178 131.39 495.827 274.506 530.609 545.105C530.609 545.105 580.696 259.569 1004 131.39C1004 131.39 688.522 0.780129 534.436 356.832C534.783 356.832 462.783 26.4855 65.2178 131.39Z" fill="#3EA106"/>
<path d="M236.904 632.108C271.713 604.185 285.635 383.897 287.867 271.784L400.904 342.757V632.108H236.904Z" fill="black"/>
<path d="M829.067 632.108C794.258 604.185 780.336 383.897 778.104 271.784L665.067 342.757V632.108H829.067Z" fill="black"/>
<path d="M392.82 754.114H373.796V661.909H392.82V754.114Z" fill="black"/>
<path d="M485.591 754.114H466.567L429.535 693.446V754.114H410.511V661.909H429.535L466.63 722.704V661.909H485.591V754.114Z" fill="black"/>
<path d="M557.752 716.434H521.228V754.114H502.204V661.909H562.318V677.298H521.228V701.109H557.752V716.434Z" fill="black"/>
<path d="M649.191 710.101C649.191 719.179 647.584 727.137 644.371 733.976C641.159 740.815 636.55 746.093 630.548 749.808C624.587 753.523 617.739 755.381 610.003 755.381C602.351 755.381 595.524 753.544 589.521 749.871C583.518 746.198 578.868 740.963 575.571 734.166C572.273 727.327 570.604 719.474 570.561 710.608V706.049C570.561 696.972 572.188 688.992 575.444 682.11C578.742 675.187 583.37 669.889 589.331 666.216C595.334 662.5 602.183 660.643 609.876 660.643C617.57 660.643 624.397 662.5 630.358 666.216C636.36 669.889 640.989 675.187 644.244 682.11C647.542 688.992 649.191 696.95 649.191 705.986V710.101ZM629.914 705.922C629.914 696.254 628.181 688.908 624.714 683.883C621.248 678.86 616.302 676.348 609.876 676.348C603.492 676.348 598.568 678.839 595.101 683.82C591.635 688.76 589.88 696.022 589.838 705.606V710.101C589.838 719.516 591.572 726.82 595.038 732.013C598.505 737.206 603.492 739.803 610.003 739.803C616.386 739.803 621.29 737.311 624.714 732.33C628.138 727.306 629.871 720.001 629.914 710.418V705.922Z" fill="black"/>
<path d="M727.06 677.298H698.779V754.114H679.755V677.298H651.854V661.909H727.06V677.298Z" fill="black"/>
<path d="M793.515 714.154H756.99V738.853H799.855V754.114H737.966V661.909H799.728V677.298H756.99V699.273H793.515V714.154Z" fill="black"/>
<path d="M883.495 723.4C882.776 733.321 879.098 741.131 872.461 746.831C865.866 752.531 857.158 755.381 846.336 755.381C834.499 755.381 825.178 751.412 818.372 743.475C811.607 735.496 808.226 724.561 808.226 710.671V705.036C808.226 696.169 809.79 688.359 812.918 681.604C816.046 674.849 820.506 669.677 826.297 666.089C832.131 662.458 838.896 660.643 846.59 660.643C857.242 660.643 865.825 663.492 872.334 669.192C878.844 674.892 882.607 682.892 883.622 693.193H864.598C864.133 687.24 862.464 682.934 859.588 680.274C856.756 677.572 852.424 676.222 846.59 676.222C840.248 676.222 835.492 678.502 832.322 683.06C829.193 687.578 827.587 694.607 827.502 704.149V711.114C827.502 721.078 829.003 728.361 832.004 732.963C835.048 737.564 839.825 739.866 846.336 739.866C852.211 739.866 856.587 738.536 859.461 735.876C862.378 733.174 864.049 729.016 864.471 723.4H883.495Z" fill="black"/>
<path d="M971.129 754.114H952.105V714.597H915.011V754.114H895.987V661.909H915.011V699.273H952.105V661.909H971.129V754.114Z" fill="black"/>
<path d="M80.8696 910.486H20C266.261 752.086 665.218 829.433 833.913 887.907C380.347 793.422 142.898 863.59 80.8696 910.486Z" fill="#3EA106"/>
<path d="M182.966 664.269L206.682 731.143L230.271 664.269H255.255V756.473H236.169V731.269L238.071 687.763L213.149 756.473H200.087L175.23 687.826L177.133 731.269V756.473H158.109V664.269H182.966Z" fill="black"/>
<path d="M61.2177 664.269L84.9335 731.143L108.522 664.269H133.506V756.473H114.42V731.269L116.322 687.763L91.4014 756.473H78.3387L53.4815 687.826L55.3839 731.269V756.473H36.3606V664.269H61.2177Z" fill="#3EA106"/>
<path d="M335.406 718.793H298.882V756.473H279.858V664.269H339.972V679.658H298.882V703.469H335.406V718.793Z" fill="#3EA106"/>
</g>
<defs>
<clipPath id="clip0_1544_2">
<rect width="984" height="808" fill="white" transform="translate(20 108)"/>
</clipPath>
</defs>
</svg>
